<svg width="42" height="42" viewBox="0 0 42 42" fill="none" xmlns="http://www.w3.org/2000/svg">
<path d="M25.5 12H14.7C14.4614 12 14.2324 12.0948 14.0637 12.2636C13.8949 12.4324 13.8 12.6613 13.8 12.9V27.3C13.8 27.5387 13.8949 27.7676 14.0637 27.9364C14.2324 28.1052 14.4614 28.2 14.7 28.2H15.6V29.1C15.6 29.3387 15.6949 29.5676 15.8637 29.7364C16.0324 29.9052 16.2614 30 16.5 30C16.7387 30 16.9677 29.9052 17.1364 29.7364C17.3052 29.5676 17.4 29.3387 17.4 29.1V28.2H25.5C26.2161 28.2 26.9029 27.9155 27.4092 27.4092C27.9156 26.9028 28.2 26.2161 28.2 25.5V14.7C28.2 13.9839 27.9156 13.2972 27.4092 12.7908C26.9029 12.2845 26.2161 12 25.5 12ZM22.8 26.4H15.6V13.8H22.8V26.4ZM26.4 25.5C26.4 25.7387 26.3052 25.9676 26.1364 26.1364C25.9677 26.3052 25.7387 26.4 25.5 26.4H24.6V13.8H25.5C25.7387 13.8 25.9677 13.8948 26.1364 14.0636C26.3052 14.2324 26.4 14.4613 26.4 14.7V25.5Z" fill="#27AE60"/>
</svg>
