<svg width="42" height="42" viewBox="0 0 42 42" fill="none" xmlns="http://www.w3.org/2000/svg">
<path d="M29.2955 13.9069C28.2198 12.8284 26.7938 12.1701 25.2752 12.051C23.7566 11.9319 22.2455 12.3598 21.0148 13.2574C19.7236 12.297 18.1165 11.8616 16.5172 12.0387C14.9178 12.2158 13.4449 12.9923 12.3952 14.2119C11.3454 15.4315 10.7967 17.0035 10.8596 18.6114C10.9225 20.2194 11.5923 21.7437 12.7341 22.8776L19.036 29.1896C19.5637 29.7089 20.2744 30 21.0148 30C21.7552 30 22.4659 29.7089 22.9936 29.1896L29.2955 22.8776C30.4803 21.6855 31.1453 20.073 31.1453 18.3922C31.1453 16.7115 30.4803 15.099 29.2955 13.9069ZM27.8646 21.4772L21.5628 27.779C21.4911 27.8514 21.4057 27.9089 21.3117 27.9481C21.2176 27.9874 21.1167 28.0076 21.0148 28.0076C20.9129 28.0076 20.812 27.9874 20.7179 27.9481C20.6239 27.9089 20.5385 27.8514 20.4668 27.779L14.165 21.4467C13.3691 20.6332 12.9235 19.5404 12.9235 18.4024C12.9235 17.2643 13.3691 16.1715 14.165 15.358C14.9759 14.5573 16.0697 14.1084 17.2093 14.1084C18.349 14.1084 19.4427 14.5573 20.2537 15.358C20.348 15.4531 20.4603 15.5286 20.5839 15.5801C20.7076 15.6317 20.8402 15.6582 20.9742 15.6582C21.1082 15.6582 21.2408 15.6317 21.3645 15.5801C21.4881 15.5286 21.6004 15.4531 21.6947 15.358C22.5057 14.5573 23.5994 14.1084 24.7391 14.1084C25.8787 14.1084 26.9725 14.5573 27.7834 15.358C28.5902 16.1609 29.0505 17.2477 29.0657 18.3858C29.0808 19.5239 28.6497 20.6227 27.8646 21.4467V21.4772Z" fill="#27AE60"/>
</svg>
