<svg width="42" height="42" viewBox="0 0 42 42" fill="none" xmlns="http://www.w3.org/2000/svg">
<g filter="url(#filter0_d_301_63)">
<path d="M21 12C19.6868 12 18.3864 12.2587 17.1732 12.7612C15.9599 13.2638 14.8575 14.0003 13.9289 14.9289C12.0536 16.8043 11 19.3478 11 22V29C11 29.2652 11.1054 29.5196 11.2929 29.7071C11.4804 29.8946 11.7348 30 12 30H15C15.7956 30 16.5587 29.6839 17.1213 29.1213C17.6839 28.5587 18 27.7956 18 27V25C18 24.2044 17.6839 23.4413 17.1213 22.8787C16.5587 22.3161 15.7956 22 15 22H13C13 19.8783 13.8429 17.8434 15.3431 16.3431C16.8434 14.8429 18.8783 14 21 14C23.1217 14 25.1566 14.8429 26.6569 16.3431C28.1571 17.8434 29 19.8783 29 22H27C26.2044 22 25.4413 22.3161 24.8787 22.8787C24.3161 23.4413 24 24.2044 24 25V27C24 27.7956 24.3161 28.5587 24.8787 29.1213C25.4413 29.6839 26.2044 30 27 30H30C30.2652 30 30.5196 29.8946 30.7071 29.7071C30.8946 29.5196 31 29.2652 31 29V22C31 19.3478 29.9464 16.8043 28.0711 14.9289C26.1957 13.0536 23.6522 12 21 12ZM15 24C15.2652 24 15.5196 24.1054 15.7071 24.2929C15.8946 24.4804 16 24.7348 16 25V27C16 27.2652 15.8946 27.5196 15.7071 27.7071C15.5196 27.8946 15.2652 28 15 28H13V24H15ZM29 28H27C26.7348 28 26.4804 27.8946 26.2929 27.7071C26.1054 27.5196 26 27.2652 26 27V25C26 24.7348 26.1054 24.4804 26.2929 24.2929C26.4804 24.1054 26.7348 24 27 24H29V28Z" fill="#27AE60"/>
</g>
<defs>
<filter id="filter0_d_301_63" x="-4" y="0" width="50" height="50" filterUnits="userSpaceOnUse" color-interpolation-filters="sRGB">
<feFlood flood-opacity="0" result="BackgroundImageFix"/>
<feColorMatrix in="SourceAlpha" type="matrix" values="0 0 0 0 0 0 0 0 0 0 0 0 0 0 0 0 0 0 127 0" result="hardAlpha"/>
<feOffset dy="4"/>
<feGaussianBlur stdDeviation="2"/>
<feComposite in2="hardAlpha" operator="out"/>
<feColorMatrix type="matrix" values="0 0 0 0 0.152941 0 0 0 0 0.682353 0 0 0 0 0.376471 0 0 0 0.15 0"/>
<feBlend mode="normal" in2="BackgroundImageFix" result="effect1_dropShadow_301_63"/>
<feBlend mode="normal" in="SourceGraphic" in2="effect1_dropShadow_301_63" result="shape"/>
</filter>
</defs>
</svg>
