<svg width="50" height="50" viewBox="0 0 50 50" fill="none" xmlns="http://www.w3.org/2000/svg">
<g filter="url(#filter0_d_301_20115)">
<rect x="4" width="42" height="42" rx="14" fill="#27AE60" shape-rendering="crispEdges"/>
<path d="M25 12C23.6868 12 22.3864 12.2587 21.1732 12.7612C19.9599 13.2638 18.8575 14.0003 17.9289 14.9289C16.0536 16.8043 15 19.3478 15 22V29C15 29.2652 15.1054 29.5196 15.2929 29.7071C15.4804 29.8946 15.7348 30 16 30H19C19.7956 30 20.5587 29.6839 21.1213 29.1213C21.6839 28.5587 22 27.7956 22 27V25C22 24.2044 21.6839 23.4413 21.1213 22.8787C20.5587 22.3161 19.7956 22 19 22H17C17 19.8783 17.8429 17.8434 19.3431 16.3431C20.8434 14.8429 22.8783 14 25 14C27.1217 14 29.1566 14.8429 30.6569 16.3431C32.1571 17.8434 33 19.8783 33 22H31C30.2044 22 29.4413 22.3161 28.8787 22.8787C28.3161 23.4413 28 24.2044 28 25V27C28 27.7956 28.3161 28.5587 28.8787 29.1213C29.4413 29.6839 30.2044 30 31 30H34C34.2652 30 34.5196 29.8946 34.7071 29.7071C34.8946 29.5196 35 29.2652 35 29V22C35 19.3478 33.9464 16.8043 32.0711 14.9289C30.1957 13.0536 27.6522 12 25 12ZM19 24C19.2652 24 19.5196 24.1054 19.7071 24.2929C19.8946 24.4804 20 24.7348 20 25V27C20 27.2652 19.8946 27.5196 19.7071 27.7071C19.5196 27.8946 19.2652 28 19 28H17V24H19ZM33 28H31C30.7348 28 30.4804 27.8946 30.2929 27.7071C30.1054 27.5196 30 27.2652 30 27V25C30 24.7348 30.1054 24.4804 30.2929 24.2929C30.4804 24.1054 30.7348 24 31 24H33V28Z" fill="white"/>
</g>
<defs>
<filter id="filter0_d_301_20115" x="0" y="0" width="50" height="50" filterUnits="userSpaceOnUse" color-interpolation-filters="sRGB">
<feFlood flood-opacity="0" result="BackgroundImageFix"/>
<feColorMatrix in="SourceAlpha" type="matrix" values="0 0 0 0 0 0 0 0 0 0 0 0 0 0 0 0 0 0 127 0" result="hardAlpha"/>
<feOffset dy="4"/>
<feGaussianBlur stdDeviation="2"/>
<feComposite in2="hardAlpha" operator="out"/>
<feColorMatrix type="matrix" values="0 0 0 0 0.152941 0 0 0 0 0.682353 0 0 0 0 0.376471 0 0 0 0.15 0"/>
<feBlend mode="normal" in2="BackgroundImageFix" result="effect1_dropShadow_301_20115"/>
<feBlend mode="normal" in="SourceGraphic" in2="effect1_dropShadow_301_20115" result="shape"/>
</filter>
</defs>
</svg>
