<svg width="24" height="16" viewBox="0 0 24 16" fill="none" xmlns="http://www.w3.org/2000/svg">
<g style="mix-blend-mode:luminosity">
<path d="M8.9133 8.35938C8.9133 8.625 9.01486 8.85156 9.2258 9.05469L15.3195 15.0156C15.4836 15.1875 15.7024 15.2734 15.9524 15.2734C16.4602 15.2734 16.8586 14.8828 16.8586 14.3672C16.8586 14.1172 16.757 13.8906 16.5852 13.7188L11.093 8.35938L16.5852 3C16.757 2.82031 16.8586 2.59375 16.8586 2.34375C16.8586 1.83594 16.4602 1.44531 15.9524 1.44531C15.7024 1.44531 15.4836 1.53125 15.3195 1.70312L9.2258 7.66406C9.01486 7.86719 8.92111 8.09375 8.9133 8.35938Z" fill="#797979"/>
</g>
<g style="mix-blend-mode:luminosity">
<path d="M4.94333 8.35938C4.94333 8.625 5.04489 8.85156 5.25583 9.05469L11.3496 15.0156C11.5136 15.1875 11.7324 15.2734 11.9824 15.2734C12.4902 15.2734 12.8886 14.8828 12.8886 14.3672C12.8886 14.1172 12.7871 13.8906 12.6152 13.7188L7.12302 8.35938L12.6152 3C12.7871 2.82031 12.8886 2.59375 12.8886 2.34375C12.8886 1.83594 12.4902 1.44531 11.9824 1.44531C11.7324 1.44531 11.5136 1.53125 11.3496 1.70312L5.25583 7.66406C5.04489 7.86719 4.95114 8.09375 4.94333 8.35938Z" fill="#797979"/>
</g>
</svg>
