<svg width="24" height="16" viewBox="0 0 24 16" fill="none" xmlns="http://www.w3.org/2000/svg">
<g style="mix-blend-mode:luminosity">
<path d="M15.0867 8.35938C15.0867 8.625 14.9851 8.85156 14.7742 9.05469L8.68045 15.0156C8.51639 15.1875 8.29764 15.2734 8.04764 15.2734C7.53983 15.2734 7.14139 14.8828 7.14139 14.3672C7.14139 14.1172 7.24295 13.8906 7.41483 13.7188L12.907 8.35938L7.41483 3C7.24295 2.82031 7.14139 2.59375 7.14139 2.34375C7.14139 1.83594 7.53983 1.44531 8.04764 1.44531C8.29764 1.44531 8.51639 1.53125 8.68045 1.70312L14.7742 7.66406C14.9851 7.86719 15.0789 8.09375 15.0867 8.35938Z" fill="#797979"/>
</g>
<g style="mix-blend-mode:luminosity">
<path d="M19.0567 8.35938C19.0567 8.625 18.9551 8.85156 18.7442 9.05469L12.6504 15.0156C12.4864 15.1875 12.2676 15.2734 12.0176 15.2734C11.5098 15.2734 11.1114 14.8828 11.1114 14.3672C11.1114 14.1172 11.2129 13.8906 11.3848 13.7188L16.877 8.35938L11.3848 3C11.2129 2.82031 11.1114 2.59375 11.1114 2.34375C11.1114 1.83594 11.5098 1.44531 12.0176 1.44531C12.2676 1.44531 12.4864 1.53125 12.6504 1.70312L18.7442 7.66406C18.9551 7.86719 19.0489 8.09375 19.0567 8.35938Z" fill="#797979"/>
</g>
</svg>
