<svg width="42" height="42" viewBox="0 0 42 42" fill="none" xmlns="http://www.w3.org/2000/svg">
<path d="M20.9985 30C20.7715 30 20.5465 29.992 20.3305 29.975C19.8552 29.9311 19.4093 29.7259 19.0668 29.3936C18.7242 29.0612 18.5057 28.6217 18.4475 28.148L18.3765 27.657C18.3419 27.5035 18.2727 27.36 18.174 27.2375C18.0754 27.1149 17.95 27.0166 17.8075 26.95C17.6835 26.883 17.5605 26.812 17.4425 26.738C17.2603 26.6194 17.0488 26.5536 16.8315 26.548C16.7337 26.5469 16.6366 26.5645 16.5455 26.6L16.0835 26.784C15.8193 26.8887 15.5377 26.9427 15.2535 26.943C14.9213 26.9485 14.5929 26.8716 14.2977 26.7193C14.0024 26.567 13.7495 26.3439 13.5615 26.07C13.3096 25.6998 13.0857 25.3114 12.8915 24.908C12.6921 24.4746 12.6472 23.986 12.7642 23.5235C12.8812 23.061 13.153 22.6525 13.5345 22.366L13.9255 22.056C14.0413 21.9499 14.1312 21.8187 14.1883 21.6723C14.2453 21.526 14.268 21.3685 14.2545 21.212C14.2545 21.149 14.2545 21.079 14.2545 21C14.2545 20.921 14.2545 20.851 14.2545 20.788C14.268 20.6315 14.2453 20.474 14.1883 20.3277C14.1312 20.1813 14.0413 20.0501 13.9255 19.944L13.5345 19.634C13.1532 19.3474 12.8814 18.9389 12.7645 18.4764C12.6475 18.014 12.6923 17.5254 12.8915 17.092C13.0855 16.6885 13.3095 16.3001 13.5615 15.93C13.7495 15.6561 14.0024 15.433 14.2977 15.2807C14.5929 15.1284 14.9213 15.0515 15.2535 15.057C15.5377 15.0573 15.8193 15.1113 16.0835 15.216L16.5455 15.4C16.6366 15.4355 16.7337 15.4531 16.8315 15.452C17.0488 15.4464 17.2603 15.3806 17.4425 15.262C17.5605 15.188 17.6835 15.116 17.8075 15.05C17.9501 14.9836 18.0756 14.8853 18.1742 14.7627C18.2729 14.6401 18.3421 14.4965 18.3765 14.343L18.4475 13.853C18.5056 13.3791 18.7241 12.9393 19.0666 12.6066C19.4091 12.2739 19.8551 12.0684 20.3305 12.024C20.5505 12.008 20.7745 12 20.9985 12C21.2225 12 21.4475 12.008 21.6675 12.024C22.1427 12.0682 22.5885 12.2736 22.9308 12.6061C23.2732 12.9386 23.4915 13.3783 23.5495 13.852L23.6215 14.342C23.6554 14.4956 23.7243 14.6393 23.8228 14.7619C23.9214 14.8845 24.0468 14.9828 24.1895 15.049C24.3085 15.112 24.4285 15.182 24.5555 15.261C24.7377 15.3796 24.9492 15.4454 25.1665 15.451C25.2646 15.4522 25.362 15.4345 25.4535 15.399L25.9145 15.215C26.1787 15.1104 26.4603 15.0564 26.7445 15.056C27.0766 15.0506 27.405 15.1275 27.7002 15.2798C27.9954 15.4321 28.2484 15.6552 28.4365 15.929C28.6892 16.299 28.9138 16.6874 29.1085 17.091C29.3076 17.5244 29.3524 18.013 29.2355 18.4754C29.1185 18.9379 28.8468 19.3464 28.4655 19.633L28.0735 19.943C27.9577 20.0491 27.8679 20.1804 27.811 20.3267C27.7541 20.4731 27.7317 20.6306 27.7455 20.787C27.7455 20.857 27.7455 20.928 27.7455 20.999C27.7455 21.07 27.7455 21.141 27.7455 21.211C27.7317 21.3674 27.7541 21.5249 27.811 21.6713C27.8679 21.8176 27.9577 21.9489 28.0735 22.055L28.4655 22.365C28.8469 22.6515 29.1187 23.06 29.2357 23.5225C29.3527 23.985 29.3078 24.4736 29.1085 24.907C28.9136 25.3105 28.689 25.6989 28.4365 26.069C28.2484 26.3428 27.9954 26.5659 27.7002 26.7182C27.405 26.8705 27.0766 26.9474 26.7445 26.942C26.4603 26.9416 26.1787 26.8876 25.9145 26.783L25.4535 26.599C25.362 26.5635 25.2646 26.5458 25.1665 26.547C24.9492 26.5526 24.7377 26.6184 24.5555 26.737C24.4275 26.817 24.3085 26.886 24.1895 26.949C24.0469 27.0154 23.9216 27.1137 23.8231 27.2363C23.7246 27.3589 23.6556 27.5025 23.6215 27.656L23.5495 28.147C23.4916 28.6207 23.2733 29.0603 22.9309 29.3927C22.5885 29.7251 22.1427 29.9302 21.6675 29.974C21.4515 29.992 21.2265 30 20.9985 30ZM16.8255 25.046C17.3243 25.0535 17.8114 25.1981 18.2335 25.464C18.3465 25.533 18.4335 25.584 18.5175 25.628C18.8683 25.8034 19.1727 26.059 19.4061 26.3742C19.6395 26.6894 19.7951 27.0553 19.8605 27.442L19.9315 27.932C19.9417 28.0673 19.9975 28.1952 20.0897 28.2947C20.182 28.3943 20.3053 28.4596 20.4395 28.48C20.6195 28.493 20.8075 28.5 20.9985 28.5C21.1895 28.5 21.3775 28.493 21.5575 28.48C21.6916 28.4596 21.8149 28.3943 21.9072 28.2947C21.9995 28.1952 22.0552 28.0673 22.0655 27.932L22.1365 27.442C22.202 27.0552 22.3578 26.6893 22.5914 26.3741C22.8249 26.0589 23.1295 25.8033 23.4805 25.628C23.5715 25.579 23.6605 25.528 23.7655 25.464C24.1872 25.198 24.674 25.0534 25.1725 25.046C25.4587 25.0452 25.7425 25.0991 26.0085 25.205L26.4695 25.389C26.5565 25.4246 26.6495 25.4433 26.7435 25.444C26.8314 25.4469 26.9188 25.4284 26.9981 25.39C27.0773 25.3517 27.1461 25.2947 27.1985 25.224C27.4086 24.9157 27.5955 24.5921 27.7575 24.256C27.808 24.1302 27.8138 23.9909 27.7737 23.8614C27.7337 23.732 27.6502 23.6202 27.5375 23.545L27.1455 23.234C26.8429 22.9848 26.6035 22.6675 26.4471 22.3081C26.2907 21.9486 26.2216 21.5573 26.2455 21.166V21V20.834C26.2217 20.4426 26.2908 20.0511 26.4472 19.6915C26.6036 19.3319 26.8429 19.0144 27.1455 18.765L27.5375 18.455C27.6503 18.3796 27.7338 18.2677 27.7738 18.138C27.8139 18.0084 27.8081 17.8689 27.7575 17.743C27.5955 17.4069 27.4087 17.0833 27.1985 16.775C27.146 16.704 27.0771 16.6468 26.9977 16.6083C26.9183 16.5698 26.8307 16.5512 26.7425 16.554C26.6488 16.5548 26.5561 16.5735 26.4695 16.609L26.0085 16.794C25.7421 16.8998 25.458 16.9538 25.1715 16.953C24.6733 16.9458 24.1867 16.8011 23.7655 16.535C23.6755 16.481 23.5785 16.424 23.4805 16.37C23.1296 16.1952 22.8249 15.9399 22.5914 15.625C22.3578 15.3101 22.202 14.9445 22.1365 14.558L22.0655 14.068C22.0563 13.9324 22.0008 13.8041 21.9083 13.7045C21.8159 13.605 21.692 13.5402 21.5575 13.521C21.3775 13.508 21.1895 13.501 20.9985 13.501C20.8075 13.501 20.6195 13.508 20.4395 13.521C20.3049 13.5402 20.1811 13.605 20.0886 13.7045C19.9961 13.8041 19.9406 13.9324 19.9315 14.068L19.8605 14.558C19.7954 14.9445 19.6399 15.3103 19.4067 15.6253C19.1735 15.9404 18.8692 16.1959 18.5185 16.371C18.4335 16.416 18.3435 16.471 18.2345 16.536C17.8128 16.8021 17.326 16.9467 16.8275 16.954C16.5412 16.9542 16.2574 16.8999 15.9915 16.794L15.5315 16.609C15.4448 16.5735 15.3521 16.5549 15.2585 16.554C15.1702 16.5511 15.0826 16.5697 15.0032 16.6082C14.9237 16.6467 14.8548 16.7039 14.8025 16.775C14.592 17.0833 14.4048 17.4068 14.2425 17.743C14.1924 17.869 14.1869 18.0083 14.2269 18.1378C14.2669 18.2673 14.3501 18.3792 14.4625 18.455L14.8545 18.765C15.1572 19.0143 15.3965 19.3318 15.5529 19.6914C15.7094 20.051 15.7784 20.4426 15.7545 20.834V21V21.166C15.7785 21.5573 15.7095 21.9487 15.553 22.3082C15.3966 22.6676 15.1572 22.9849 14.8545 23.234L14.4625 23.545C14.35 23.6205 14.2668 23.7322 14.2268 23.8616C14.1867 23.991 14.1923 24.1302 14.2425 24.256C14.4046 24.5922 14.5918 24.9158 14.8025 25.224C14.8548 25.2948 14.9235 25.3518 15.0028 25.3902C15.0821 25.4285 15.1695 25.447 15.2575 25.444C15.3515 25.4432 15.4444 25.4245 15.5315 25.389L15.9915 25.205C16.2568 25.0995 16.5399 25.0455 16.8255 25.046ZM20.9985 24.746C20.2566 24.746 19.5314 24.526 18.9147 24.1137C18.2979 23.7015 17.8172 23.1156 17.5335 22.4301C17.2498 21.7447 17.1758 20.9905 17.3208 20.2629C17.4658 19.5354 17.8234 18.8672 18.3482 18.3429C18.8731 17.8186 19.5416 17.4618 20.2693 17.3176C20.997 17.1733 21.7511 17.2482 22.4363 17.5326C23.1215 17.817 23.7068 18.2983 24.1184 18.9155C24.53 19.5327 24.7493 20.2582 24.7485 21C24.7474 21.9942 24.352 22.9474 23.6489 23.6505C22.9459 24.3535 21.9927 24.7489 20.9985 24.75V24.746ZM20.9985 18.746C20.5536 18.746 20.1188 18.8779 19.7488 19.1249C19.3789 19.372 19.0905 19.7231 18.9201 20.134C18.7497 20.5449 18.7049 20.9971 18.7914 21.4335C18.8779 21.8698 19.0918 22.2708 19.4061 22.5856C19.7203 22.9004 20.1209 23.115 20.5571 23.2023C20.9933 23.2895 21.4455 23.2456 21.8567 23.0759C22.2679 22.9062 22.6196 22.6184 22.8673 22.2489C23.115 21.8795 23.2477 21.4448 23.2485 21C23.2477 20.4035 23.0104 19.8317 22.5886 19.4099C22.1668 18.9881 21.595 18.7508 20.9985 18.75V18.746Z" fill="black" fill-opacity="0.45"/>
</svg>
